<svg width="38" height="38" viewBox="0 0 38 38" fill="none" xmlns="http://www.w3.org/2000/svg">
<path d="M35.6175 16.9268C34.6248 16.9268 33.819 17.7325 33.819 18.7252C33.819 26.8975 27.1719 33.5447 18.9996 33.5447C10.8273 33.5447 4.18009 26.8975 4.18009 18.7252C4.18009 17.7325 3.37437 16.9268 2.38161 16.9268C1.38885 16.9268 0.58313 17.7325 0.58313 18.7252C0.58313 23.6459 2.49671 28.2716 5.97857 31.7462C9.46043 35.2281 14.0789 37.1417 18.9996 37.1417C23.9202 37.1417 28.5459 35.2281 32.0206 31.7462C35.5024 28.2644 37.416 23.6459 37.416 18.7252C37.416 17.7325 36.6103 16.9268 35.6175 16.9268Z" fill="#4FAA89"/>
<path d="M16.5324 25.0271C17.1942 25.689 18.0719 26.0487 18.9999 26.0487C19.9351 26.0487 20.8127 25.6818 21.4674 25.0271L25.9924 20.5022C26.6974 19.7972 26.6974 18.6605 25.9924 17.9555C25.2874 17.2505 24.1507 17.2505 23.4457 17.9555L20.7984 20.6101V2.10732C20.7984 1.11456 19.9926 0.308838 18.9999 0.308838C18.0071 0.308838 17.2014 1.11456 17.2014 2.10732V20.6101L14.5468 17.9555C13.8418 17.2505 12.7052 17.2505 12.0002 17.9555C11.2952 18.6605 11.2952 19.7972 12.0002 20.5022L16.5324 25.0271Z" fill="#4FAA89"/>
</svg>
