<svg width="42" height="43" viewBox="0 0 42 43" fill="none" xmlns="http://www.w3.org/2000/svg">
<path d="M21 6.7251C21.3978 6.7251 21.7794 6.56706 22.0607 6.28576C22.342 6.00445 22.5 5.62292 22.5 5.2251V2.2251C22.5 1.82727 22.342 1.44574 22.0607 1.16444C21.7794 0.883133 21.3978 0.725098 21 0.725098C20.6022 0.725098 20.2206 0.883133 19.9393 1.16444C19.658 1.44574 19.5 1.82727 19.5 2.2251V5.2251C19.5 5.62292 19.658 6.00445 19.9393 6.28576C20.2206 6.56706 20.6022 6.7251 21 6.7251Z" fill="#4FAA89"/>
<path d="M39.75 19.4751H36.75C36.3522 19.4751 35.9706 19.6331 35.6893 19.9144C35.408 20.1957 35.25 20.5773 35.25 20.9751C35.25 21.3729 35.408 21.7545 35.6893 22.0358C35.9706 22.3171 36.3522 22.4751 36.75 22.4751H39.75C40.1478 22.4751 40.5294 22.3171 40.8107 22.0358C41.092 21.7545 41.25 21.3729 41.25 20.9751C41.25 20.5773 41.092 20.1957 40.8107 19.9144C40.5294 19.6331 40.1478 19.4751 39.75 19.4751Z" fill="#4FAA89"/>
<path d="M5.25 19.4751H2.25C1.85218 19.4751 1.47064 19.6331 1.18934 19.9144C0.908035 20.1957 0.75 20.5773 0.75 20.9751C0.75 21.3729 0.908035 21.7545 1.18934 22.0358C1.47064 22.3171 1.85218 22.4751 2.25 22.4751H5.25C5.64782 22.4751 6.02936 22.3171 6.31066 22.0358C6.59196 21.7545 6.75 21.3729 6.75 20.9751C6.75 20.5773 6.59196 20.1957 6.31066 19.9144C6.02936 19.6331 5.64782 19.4751 5.25 19.4751Z" fill="#4FAA89"/>
<path d="M32.1381 11.3374C32.3352 11.338 32.5304 11.2994 32.7124 11.224C32.8944 11.1485 33.0597 11.0377 33.1986 10.8979L35.3196 8.77693C35.5928 8.49403 35.744 8.11512 35.7406 7.72183C35.7372 7.32853 35.5795 6.95232 35.3013 6.6742C35.0232 6.39609 34.647 6.23834 34.2537 6.23492C33.8604 6.2315 33.4815 6.38269 33.1986 6.65593L31.0776 8.77693C30.8679 8.98671 30.7251 9.25395 30.6672 9.54488C30.6094 9.83581 30.6391 10.1374 30.7526 10.4114C30.8661 10.6855 31.0583 10.9197 31.3049 11.0845C31.5515 11.2494 31.8415 11.3374 32.1381 11.3374Z" fill="#4FAA89"/>
<path d="M8.8022 10.8982C9.0851 11.1714 9.46401 11.3226 9.8573 11.3192C10.2506 11.3158 10.6268 11.158 10.9049 10.8799C11.183 10.6018 11.3408 10.2256 11.3442 9.83228C11.3476 9.43898 11.1964 9.06008 10.9232 8.77718L8.8022 6.65618C8.66383 6.51291 8.49831 6.39864 8.31531 6.32002C8.1323 6.24141 7.93547 6.20003 7.7363 6.1983C7.53713 6.19657 7.33961 6.23452 7.15527 6.30994C6.97092 6.38536 6.80345 6.49674 6.66261 6.63758C6.52177 6.77842 6.41039 6.9459 6.33497 7.13024C6.25955 7.31459 6.22159 7.51211 6.22332 7.71128C6.22505 7.91045 6.26643 8.10728 6.34505 8.29028C6.42366 8.47329 6.53793 8.63881 6.6812 8.77718L8.8022 10.8982Z" fill="#4FAA89"/>
<path d="M29.504 11.4742C28.2378 10.3354 26.7563 9.46189 25.147 8.9051C23.5376 8.34831 21.8331 8.11956 20.1339 8.23234C18.4347 8.34512 16.7753 8.79716 15.2536 9.56177C13.732 10.3264 12.3789 11.3881 11.2743 12.6842C10.1697 13.9803 9.33596 15.4845 8.82224 17.1081C8.30853 18.7317 8.12526 20.4418 8.28328 22.1374C8.44129 23.833 8.93737 25.4797 9.74225 26.9805C10.5471 28.4812 11.6445 29.8055 12.9695 30.8752C13.5816 31.3437 14.0814 31.9428 14.4327 32.6289C14.7841 33.315 14.978 34.0707 15.0005 34.8412V38.2252C15.0005 39.4186 15.4746 40.5632 16.3186 41.4071C17.1625 42.2511 18.3071 42.7252 19.5005 42.7252H22.5005C23.694 42.7252 24.8386 42.2511 25.6825 41.4071C26.5264 40.5632 27.0005 39.4186 27.0005 38.2252V34.9657C26.9845 34.2226 27.1372 33.4856 27.4471 32.81C27.7571 32.1345 28.2162 31.5381 28.79 31.0657C30.2706 29.9223 31.4815 28.4672 32.3367 26.8035C33.192 25.1397 33.6706 23.3082 33.7388 21.4388C33.8069 19.5694 33.4629 17.7078 32.731 15.9863C31.9992 14.2647 30.8975 12.7253 29.504 11.4772V11.4742ZM24.0005 38.2252C24.0005 38.623 23.8425 39.0045 23.5612 39.2858C23.2799 39.5671 22.8984 39.7252 22.5005 39.7252H19.5005C19.1027 39.7252 18.7212 39.5671 18.4399 39.2858C18.1586 39.0045 18.0005 38.623 18.0005 38.2252V36.7252H24.0005V38.2252ZM26.957 28.6897C25.3898 29.9371 24.3637 31.7406 24.092 33.7252H22.5005V27.7252H24.0005C24.3984 27.7252 24.7799 27.5671 25.0612 27.2858C25.3425 27.0045 25.5005 26.623 25.5005 26.2252C25.5005 25.8273 25.3425 25.4458 25.0612 25.1645C24.7799 24.8832 24.3984 24.7252 24.0005 24.7252H18.0005C17.6027 24.7252 17.2212 24.8832 16.9399 25.1645C16.6586 25.4458 16.5005 25.8273 16.5005 26.2252C16.5005 26.623 16.6586 27.0045 16.9399 27.2858C17.2212 27.5671 17.6027 27.7252 18.0005 27.7252H19.5005V33.7252H17.9165C17.5798 31.676 16.4888 29.8269 14.858 28.5412C13.2859 27.2652 12.15 25.5314 11.6081 23.5804C11.0661 21.6295 11.145 19.5583 11.8338 17.6542C12.5225 15.7501 13.787 14.1078 15.4517 12.955C17.1163 11.8023 19.0985 11.1965 21.1232 11.2216C23.1478 11.2467 25.1145 11.9015 26.75 13.0951C28.3856 14.2888 29.6089 15.962 30.2503 17.8825C30.8917 19.8031 30.9192 21.8756 30.329 23.8125C29.7389 25.7494 28.5603 27.4545 26.957 28.6912V28.6897Z" fill="#4FAA89"/>
</svg>
