<svg width="40" height="41" viewBox="0 0 40 41" fill="none" xmlns="http://www.w3.org/2000/svg">
<path d="M23.8854 34.4015V39.0639C23.8854 39.9223 23.1897 40.618 22.3312 40.618H19.223C16.652 40.618 14.5606 38.5266 14.5606 35.9556V35.1728C14.5606 34.967 14.431 34.7803 14.23 34.6975L14.2097 34.689C14.207 34.688 14.2042 34.6868 14.2018 34.6856C14 34.6018 13.7756 34.6419 13.6302 34.7876L13.0766 35.3413C11.259 37.1589 8.30097 37.1589 6.48306 35.3413L5.38394 34.2421C4.50337 33.3616 4.01861 32.1908 4.01861 30.9454C4.01861 29.7 4.50337 28.5292 5.38424 27.6486L5.9376 27.095C6.08299 26.9496 6.12306 26.7253 6.03959 26.5237L6.02684 26.4933C5.94488 26.2942 5.7582 26.1646 5.5524 26.1646H4.76957C2.19858 26.1646 0.107178 24.0732 0.107178 21.5022V19.9481C0.107178 17.3771 2.19858 15.2857 4.76957 15.2857H5.5524C5.7582 15.2857 5.94488 15.1561 6.02775 14.9554L6.03959 14.9272C6.12336 14.7251 6.0833 14.501 5.9376 14.3553L5.38424 13.802C4.50367 12.9214 4.01861 11.7507 4.01861 10.5052C4.01861 9.25979 4.50367 8.08873 5.38424 7.20816L6.48306 6.10934C7.36363 5.22877 8.53439 4.74371 9.77982 4.74371C11.0253 4.74371 12.196 5.22877 13.0769 6.10934L13.6302 6.66269C13.7759 6.80839 14.0003 6.84816 14.2018 6.76468C14.2042 6.76347 14.207 6.76256 14.2097 6.76135L14.2355 6.75072C14.431 6.66998 14.5609 6.4833 14.5609 6.2775V5.49467C14.5609 2.92367 16.6523 0.832275 19.2233 0.832275H22.3316C23.1897 0.832275 23.8857 1.52799 23.8857 2.38641V7.0488C23.8857 7.90721 23.1897 8.60293 22.3316 8.60293C21.4731 8.60293 20.7774 7.90721 20.7774 7.0488V3.94054H19.2233C18.3661 3.94054 17.6692 4.63777 17.6692 5.49467V6.2775C17.6692 7.74634 16.7849 9.06067 15.4169 9.62556L15.3917 9.63618C14.0245 10.2032 12.4707 9.89875 11.4326 8.86064L10.8789 8.30728C10.5854 8.01345 10.1951 7.85197 9.78012 7.85197C9.36488 7.85197 8.97483 8.01345 8.68131 8.30728L7.58218 9.4061C7.28866 9.69962 7.12717 10.09 7.12717 10.5052C7.12717 10.9202 7.28866 11.3105 7.58218 11.604L8.13554 12.1574C9.17426 13.1961 9.4784 14.7512 8.91018 16.1192L8.90168 16.1402C8.33557 17.5097 7.02154 18.394 5.5524 18.394H4.76957C3.91267 18.394 3.21544 19.0912 3.21544 19.9481V21.5022C3.21544 22.3591 3.91267 23.0563 4.76957 23.0563H5.5524C7.02124 23.0563 8.33557 23.9406 8.90046 25.3086L8.912 25.3359C9.4781 26.6991 9.17426 28.2542 8.13554 29.2929L7.58188 29.8463C7.28836 30.1398 7.12687 30.5301 7.12687 30.9454C7.12687 31.3603 7.28836 31.7507 7.58188 32.0442L8.681 33.1433C9.28687 33.7492 10.2728 33.7492 10.8789 33.1433L11.4323 32.5897C12.4704 31.5519 14.0242 31.2474 15.3917 31.8144L15.4117 31.8226C16.7849 32.3896 17.6689 33.704 17.6689 35.1728V35.9556C17.6689 36.8125 18.3661 37.5098 19.223 37.5098H20.7771V34.4015C20.7771 33.5431 21.4728 32.8474 22.3312 32.8474C23.1897 32.8474 23.8854 33.5431 23.8854 34.4015ZM37.1732 18.0054C36.2492 18.0054 35.4333 18.4668 34.9419 19.171H22.853C22.3616 18.4668 21.5457 18.0054 20.6217 18.0054C19.1198 18.0054 17.902 19.2232 17.902 20.7252C17.902 22.2271 19.1198 23.4449 20.6217 23.4449C21.5457 23.4449 22.3616 22.9835 22.853 22.2793H34.9419C35.4333 22.9835 36.2492 23.4449 37.1732 23.4449C38.6751 23.4449 39.8929 22.2271 39.8929 20.7252C39.8929 19.2232 38.6751 18.0054 37.1732 18.0054ZM37.1732 30.7493C36.9792 30.7493 36.7901 30.7699 36.6077 30.8085L32.825 27.0783C32.5342 26.7917 32.1423 26.6308 31.7337 26.6308H20.0001C16.7437 26.6308 14.0944 23.9815 14.0944 20.7252C14.0944 17.4688 16.7437 14.8195 20.0001 14.8195H31.7337C32.146 14.8195 32.5412 14.6558 32.8326 14.3644L36.6283 10.5687C36.8044 10.6045 36.9865 10.6233 37.1732 10.6233C38.6751 10.6233 39.8929 9.4058 39.8929 7.90357C39.8929 6.40165 38.6751 5.18384 37.1732 5.18384C35.6713 5.18384 34.4535 6.40165 34.4535 7.90357C34.4535 8.04411 34.4641 8.18192 34.4847 8.31669L31.0899 11.7112H20.0001C15.0299 11.7112 10.9861 15.7547 10.9861 20.7252C10.9861 25.6956 15.0299 29.7391 20.0001 29.7391H31.0963L34.482 33.0778C34.4635 33.2056 34.4535 33.3361 34.4535 33.469C34.4535 34.9709 35.6713 36.1888 37.1732 36.1888C38.6751 36.1888 39.8929 34.9709 39.8929 33.469C39.8929 31.9671 38.6751 30.7493 37.1732 30.7493Z" fill="#4FAA89"/>
</svg>
