<svg width="44" height="49" viewBox="0 0 44 49" fill="none" xmlns="http://www.w3.org/2000/svg">
<path d="M22 0.725098C10.3689 0.725098 0.90625 10.1878 0.90625 21.8188C0.90625 23.1078 0.90625 33.079 0.90625 33.2563C0.90625 35.5826 2.79878 37.4751 5.125 37.4751H6.77313C7.35363 39.1118 8.91672 40.2876 10.75 40.2876C13.0762 40.2876 14.9688 38.3951 14.9688 36.0688V24.6313C14.9688 22.3051 13.0762 20.4126 10.75 20.4126C8.91672 20.4126 7.35363 21.5884 6.77313 23.2251H5.125C4.63197 23.2251 4.15891 23.3109 3.71875 23.467V21.8188C3.71875 11.7386 11.9197 3.5376 22 3.5376C32.0803 3.5376 40.2812 11.7386 40.2812 21.8188V23.467C39.8411 23.3109 39.368 23.2251 38.875 23.2251H37.2269C36.6464 21.5884 35.0833 20.4126 33.25 20.4126C30.9238 20.4126 29.0312 22.3051 29.0312 24.6313V36.0688C29.0312 38.3951 30.9238 40.2876 33.25 40.2876C33.6757 40.2876 34.0867 40.2237 34.4745 40.1058C33.9484 41.8366 32.338 43.1001 30.4375 43.1001H25.9769C25.3964 41.4634 23.8333 40.2876 22 40.2876C19.6738 40.2876 17.7812 42.1801 17.7812 44.5063C17.7812 46.8326 19.6738 48.7251 22 48.7251C23.8333 48.7251 25.3964 47.5493 25.9769 45.9126H30.4375C34.3145 45.9126 37.4688 42.7584 37.4688 38.8813V37.4751H38.875C41.2012 37.4751 43.0938 35.5826 43.0938 33.2563C43.0938 33.0816 43.0938 23.1068 43.0938 21.8188C43.0938 10.1878 33.6311 0.725098 22 0.725098ZM9.34375 24.6313C9.34375 23.8559 9.97459 23.2251 10.75 23.2251C11.5254 23.2251 12.1562 23.8559 12.1562 24.6313V36.0688C12.1562 36.8443 11.5254 37.4751 10.75 37.4751C9.97459 37.4751 9.34375 36.8443 9.34375 36.0688V24.6313ZM5.125 26.0376H6.53125V34.6626H5.125C4.34959 34.6626 3.71875 34.0318 3.71875 33.2563V27.4438C3.71875 26.6684 4.34959 26.0376 5.125 26.0376ZM22 45.9126C21.2246 45.9126 20.5938 45.2818 20.5938 44.5063C20.5938 43.7309 21.2246 43.1001 22 43.1001C22.7754 43.1001 23.4062 43.7309 23.4062 44.5063C23.4062 45.2818 22.7754 45.9126 22 45.9126ZM34.6562 36.0688C34.6562 36.8443 34.0254 37.4751 33.25 37.4751C32.4746 37.4751 31.8438 36.8443 31.8438 36.0688V24.6313C31.8438 23.8559 32.4746 23.2251 33.25 23.2251C34.0254 23.2251 34.6562 23.8559 34.6562 24.6313V36.0688ZM40.2812 33.2563C40.2812 34.0318 39.6504 34.6626 38.875 34.6626H37.4688V26.0376H38.875C39.6504 26.0376 40.2812 26.6684 40.2812 27.4438V33.2563Z" fill="#4FAA89"/>
</svg>
